HIERARCHY
ROOT Hips
{
	OFFSET 0.000000 0.000000 0.000000
	CHANNELS 6 Xposition Yposition Zposition Zrotation Yrotation Xrotation 
	JOINT LHipJoint
	{
		OFFSET 0.000000 0.000000 0.000000
		CHANNELS 3 Zrotation Yrotation Xrotation
		JOINT LeftUpLeg
		{
			OFFSET 1.363060 -1.794630 0.839290
			CHANNELS 3 Zrotation Yrotation Xrotation
			JOINT LeftLeg
			{
				OFFSET 2.448110 -6.726130 0.000000
				CHANNELS 3 Zrotation Yrotation Xrotation
				JOINT LeftFoot
				{
					OFFSET 2.562200 -7.039590 0.000000
					CHANNELS 3 Zrotation Yrotation Xrotation
					JOINT LeftToeBase
					{
						OFFSET 0.157640 -0.433110 2.322550
						CHANNELS 3 Zrotation Yrotation Xrotation
						End Site
						{
							OFFSET 0.000000 0.000000 0.000000
						}
					}
				}
			}
		}
	}
	JOINT RHipJoint
	{
		OFFSET 0.000000 0.000000 0.000000
		CHANNELS 3 Zrotation Yrotation Xrotation
		JOINT RightUpLeg
		{
			OFFSET -1.305520 -1.794630 0.839290
			CHANNELS 3 Zrotation Yrotation Xrotation
			JOINT RightLeg
			{
				OFFSET -2.542530 -6.985550 0.000000
				CHANNELS 3 Zrotation Yrotation Xrotation
				JOINT RightFoot
				{
					OFFSET -2.568260 -7.056230 0.000000
					CHANNELS 3 Zrotation Yrotation Xrotation
					JOINT RightToeBase
					{
						OFFSET -0.164730 -0.452590 2.363150
						CHANNELS 3 Zrotation Yrotation Xrotation
						End Site
						{
							OFFSET 0.000000 0.000000 0.000000
						}
					}
				}
			}
		}
	}
}
MOTION
Frames: 24
Frame Time: 0.008333
1.663637 16.177850 -3.917766 -170.648232 43.222631 -158.355844 -8.372867 0.474261 -0.307645 -22.190420 10.007602 -55.843899 -2.357990 2.365377 42.155262 3.201453 12.046954 -18.317964 -2.067600 0.000000 -5.329899 12.028553 -3.086247 -2.735799 -5.116357 -19.325644 -2.579242 -0.476318 -2.154316 38.434832 -2.888555 -14.461050 33.961180 -8.592900 -0.000000 -69.874900
1.767646 16.171248 -4.083079 -170.740451 42.714366 -158.838895 -8.432344 0.519310 -0.525525 -22.229720 10.595925 -55.022806 -2.374039 2.431353 43.065944 3.106860 11.508340 -19.211872 -2.253000 0.000000 -4.972400 12.050723 -2.919959 -2.892882 -5.452603 -19.634793 -3.343567 -0.542694 -2.290662 41.141612 -3.068426 -16.335828 32.443121 -9.530700 -0.000000 -66.726800
1.864922 16.169568 -4.250718 -170.795409 42.162349 -159.242472 -8.515921 0.554555 -0.695851 -22.135380 10.994999 -54.080456 -2.387132 2.468053 43.745932 3.046678 11.105872 -20.128570 -2.440800 0.000000 -4.736800 12.038181 -2.773398 -3.041720 -5.615080 -19.802744 -4.243761 -0.605821 -2.448372 43.782130 -3.194106 -17.711140 30.565131 -10.012800 -0.000001 -64.504700
1.956854 16.173788 -4.420079 -170.827590 41.578266 -159.556241 -8.617416 0.580992 -0.812318 -21.928612 11.176187 -53.047139 -2.392391 2.477058 44.206663 3.021955 10.866346 -21.009945 -2.629400 -0.000000 -4.619600 12.000370 -2.645402 -3.166705 -5.600292 -19.804201 -5.315745 -0.669319 -2.619689 46.339685 -3.266729 -18.579716 28.440635 -10.063000 0.000000 -62.966300
2.044868 16.184871 -4.590456 -170.851665 40.972406 -159.774816 -8.729052 0.599580 -0.872817 -21.638975 11.128625 -51.952392 -2.386472 2.459333 44.456632 3.030487 10.797501 -21.806172 -2.817900 0.000000 -4.614100 11.946674 -2.532516 -3.251553 -5.411713 -19.610255 -6.575141 -0.733662 -2.793886 48.771989 -3.292870 -19.001371 26.229591 -9.777600 -0.000001 -62.207300
2.130433 16.203575 -4.760857 -170.887996 40.353365 -159.905716 -8.841977 0.612527 -0.879490 -21.301461 10.858735 -50.816556 -2.368389 2.415677 44.500585 3.067352 10.888653 -22.479908 -3.004100 -0.000000 -4.709800 11.886266 -2.429623 -3.287552 -5.074850 -19.216651 -8.022084 -0.797491 -2.963328 51.046880 -3.277060 -19.030055 24.042359 -9.248000 0.000000 -62.104401
2.214775 16.230423 -4.930435 -170.952131 39.726830 -159.962071 -8.948102 0.622128 -0.838418 -20.948392 10.390732 -49.650510 -2.339334 2.346903 44.339766 3.125309 11.112166 -23.006714 -3.182900 0.000000 -4.895400 11.826556 -2.331371 -3.272145 -4.628314 -18.635131 -9.639188 -0.858711 -3.122987 53.136271 -3.223166 -18.717498 21.949382 -8.554900 0.000000 -62.136700
2.298718 16.265643 -5.098449 -171.051366 39.094962 -159.959496 -9.041920 0.629098 -0.759865 -20.602796 9.764018 -48.455383 -2.302226 2.254036 43.973316 3.195569 11.427880 -23.375771 -3.346000 -0.000000 -5.161300 11.771479 -2.231163 -3.205132 -4.109262 -17.876472 -11.386950 -0.915108 -3.266152 54.990783 -3.143757 -18.175339 20.075603 -7.817000 -0.000001 -62.549200
2.382936 16.309130 -5.264265 -171.192209 38.458139 -159.920438 -9.119967 0.634556 -0.655936 -20.280118 9.026288 -47.219907 -2.261491 2.138431 43.397253 3.268814 11.789971 -23.587152 -3.483600 -0.000000 -5.498900 11.722927 -2.123806 -3.093666 -3.560703 -16.972471 -13.219883 -0.964961 -3.390639 56.583406 -3.047941 -17.483497 18.464057 -7.100600 -0.000000 -63.017301
2.467568 16.360408 -5.427645 -171.370837 37.814973 -159.864238 -9.182154 0.638962 -0.539523 -19.985536 8.228707 -45.925978 -2.221904 2.001869 42.606427 3.336153 12.153267 -23.649730 -3.586700 -0.000000 -5.900000 11.679517 -2.005555 -2.948434 -3.017501 -15.960375 -15.088313 -1.006924 -3.495504 57.893762 -2.945337 -16.722545 17.127292 -6.451400 -0.000000 -63.262300
2.552505 16.418709 -5.588570 -171.579300 37.161303 -159.809529 -9.230946 0.642038 -0.422750 -19.716340 7.419440 -44.551861 -2.187520 1.846285 41.597404 3.389967 12.479094 -23.577182 -3.648500 0.000001 -6.356000 11.637708 -1.874612 -2.780588 -2.502562 -14.876099 -16.941334 -1.039872 -3.579881 58.902550 -2.847139 -15.980545 16.074737 -5.906200 -0.000000 -63.334700
2.637382 16.483005 -5.747265 -171.805712 36.492973 -159.769817 -9.270861 0.643599 -0.315336 -19.464183 6.638719 -43.077121 -2.161223 1.673954 40.368652 3.424560 12.739114 -23.384546 -3.665300 -0.000000 -6.856000 11.592382 -1.731371 -2.601956 -2.026702 -13.755021 -18.735851 -1.062754 -3.644030 59.602809 -2.760986 -15.320672 15.270870 -5.474400 -0.000000 -63.188900
2.721784 16.552075 -5.904163 -172.036997 35.805665 -159.753818 -9.307564 0.643313 -0.223730 -19.216785 5.915666 -41.488048 -2.144077 1.487525 38.924490 3.436430 12.917002 -23.085347 -3.636600 -0.000000 -7.387700 11.537838 -1.578034 -2.422806 -1.588552 -12.626427 -20.438024 -1.074527 -3.688363 59.994777 -2.691928 -14.788164 14.660707 -5.153000 0.000000 -62.864400
2.805141 16.624532 -6.059916 -172.256149 35.092555 -159.761582 -9.347419 0.640729 -0.150585 -18.959835 5.266818 -39.780989 -2.134947 1.289930 37.276775 3.424378 13.008731 -22.689756 -3.564400 -0.000000 -7.938000 11.468344 -1.418309 -2.251069 -1.177660 -11.512654 -22.025001 -1.073953 -3.713308 60.084389 -2.642000 -14.407368 14.174499 -4.929700 0.000000 -62.446800
2.887198 16.699021 -6.215074 -172.451926 34.347143 -159.790246 -9.396127 0.635661 -0.094833 -18.678887 4.695281 -37.964296 -2.131093 1.084744 35.447623 3.389096 13.019553 -22.205141 -3.452601 0.000000 -8.494200 11.379259 -1.256371 -2.091805 -0.777879 -10.428603 -23.485421 -1.059913 -3.719345 59.882038 -2.610717 -14.182691 13.737437 -4.786199 -0.000000 -62.003200
2.967655 16.774075 -6.370249 -172.611177 33.559737 -159.829649 -9.458756 0.627913 -0.052309 -18.360827 4.192746 -36.059445 -2.128207 0.876061 33.470298 3.332850 12.961755 -21.636639 -3.305900 -0.000000 -9.045900 11.267028 -1.096595 -1.947125 -0.372323 -9.382910 -24.817843 -1.031187 -3.706885 59.399866 -2.595935 -14.102753 13.282912 -4.702500 -0.000000 -61.597101
3.046529 16.848429 -6.525907 -172.726826 32.719774 -159.868155 -9.538541 0.617879 -0.016840 -17.995384 3.742012 -34.099040 -2.121647 0.668724 31.388472 3.258744 12.850085 -20.988803 -3.129600 0.000000 -9.587800 11.129936 -0.942505 -1.816739 0.054048 -8.380126 -26.029930 -0.986618 -3.676402 58.650630 -2.594474 -14.143080 12.756608 -4.656600 0.000000 -61.210000
3.124191 16.920923 -6.682159 -172.799970 31.815297 -159.895618 -9.636186 0.606602 0.018659 -17.578675 3.320081 -32.123792 -2.107306 0.467973 29.256043 3.170369 12.698538 -20.269121 -2.929400 -0.000000 -10.120401 10.968567 -0.796757 -1.697475 0.508304 -7.421885 -27.134135 -0.925244 -3.628251 57.644220 -2.603984 -14.277109 12.136534 -4.632100 0.000000 -60.893000
3.201120 16.990654 -6.839070 -172.833813 30.834733 -159.903140 -9.750168 0.596069 0.060299 -17.111880 2.904857 -30.175069 -2.082428 0.279164 27.129082 3.070869 12.517097 -19.485986 -2.710501 -0.000000 -10.655300 10.785599 -0.660858 -1.585836 0.989394 -6.511309 -28.145141 -0.846033 -3.563282 56.392618 -2.621017 -14.466998 11.408176 -4.609900 -0.000000 -60.446400
3.278247 17.056881 -6.996227 -172.843045 29.767899 -159.888293 -9.875529 0.588831 0.112982 -16.605339 2.475037 -28.294417 -2.046533 0.107108 25.066563 2.962989 12.309674 -18.653692 -2.478500 -0.000000 -11.210100 10.586225 -0.534728 -1.475938 1.485073 -5.650634 -29.078231 -0.748888 -3.481625 54.899990 -2.645340 -14.691814 10.610021 -4.587800 -0.000001 -59.978800
3.356335 17.119061 -7.153188 -172.842142 28.607781 -159.853112 -10.005454 0.587733 0.178589 -16.074357 2.017069 -26.513158 -2.001195 -0.044440 23.119047 2.848405 12.074352 -17.786864 -2.238600 0.000000 -11.812500 10.377425 -0.417389 -1.362972 1.974560 -4.845064 -29.944169 -0.634350 -3.383707 53.171530 -2.676232 -14.929996 9.788828 -4.566200 -0.000000 -59.452700
3.436457 17.176807 -7.309328 -172.851981 27.353275 -159.805243 -10.131034 0.595750 0.256634 -15.538582 1.523058 -24.851414 -1.950121 -0.173222 21.325786 2.728092 11.805056 -16.901308 -1.995700 -0.000000 -12.493300 10.168014 -0.306819 -1.243282 2.431404 -4.103683 -30.750425 -0.503945 -3.269993 51.212306 -2.712701 -15.163274 8.999616 -4.550200 0.000000 -58.865200
3.519531 17.229915 -7.464097 -172.890990 26.009175 -159.756695 -10.243542 0.615025 0.343795 -15.016803 0.993298 -23.314220 -1.897970 -0.278490 19.710592 2.602232 11.493408 -16.010969 -1.754500 -0.000000 -13.286300 9.967153 -0.200883 -1.115955 2.829365 -3.439453 -31.497354 -0.359524 -3.141175 49.030508 -2.752111 -15.371125 8.284140 -4.542900 -0.000000 -58.167100
3.606269 17.278068 -7.617010 -172.973836 24.584913 -159.717445 -10.334802 0.646560 0.435981 -14.527746 0.430541 -21.897999 -1.849447 -0.361139 18.284990 2.471088 11.132205 -15.129418 -1.519700 0.000000 -14.214100 9.783628 -0.097554 -0.980034 3.144965 -2.863153 -32.183179 -0.203782 -2.997100 46.629872 -2.791823 -15.541701 7.696854 -4.554400 -0.000000 -57.496800
